# xmcd
#
# Track frame offsets:
#	187
#	13830
#	29207
#	46025
#	59957
#	75985
#	86755
#	102192
#	121472
#	133895
#	149242
#
# Disc length: 2236 seconds
#
# Revision: 3
# Processed by: cddbd v1.5.1PL0 Copyright (c) Steve Scherf et al.
# Submitted via: EasyCDDAExtractor 7.0.5.1
#
DISCID=a508ba0b
DTITLE=The Oak Ridge Boys - Unstoppable
DYEAR=1991
DGENRE=Country
TTITLE0=Heaven Bound (I'm Ready)
TTITLE1=When It Comes To You
TTITLE2=Change My Mind
TTITLE3=Your Love Made Me This Way
TTITLE4=If I Were You
TTITLE5=Walkin' After Midnight
TTITLE6=Lucky Moon
TTITLE7=In A Tender Moment
TTITLE8=Love This Cat
TTITLE9=Baby On Board
TTITLE10=Our Love Is Here To Stay
EXTD=
EXTT0=
EXTT1=
EXTT2=
EXTT3=
EXTT4=
EXTT5=
EXTT6=
EXTT7=
EXTT8=
EXTT9=
EXTT10=
PLAYORDER=
